<svg width="56" height="40" viewBox="0 0 56 40" fill="none" xmlns="http://www.w3.org/2000/svg">
<path d="M37.3042 26.782C37.646 26.8945 38.0044 26.9482 38.3642 26.941C39.9532 26.941 40.6422 26.305 40.6422 25.564C40.6422 24.716 39.4762 24.716 39.3702 23.922C39.2112 22.968 39.3172 18.73 40.9592 16.399L42.0722 16.876C42.2884 16.976 42.523 17.0302 42.7612 17.035C42.9042 17.0299 43.0445 16.9941 43.1725 16.9301C43.3005 16.8661 43.4133 16.7753 43.5032 16.664C44.6029 15.47 45.5634 14.1549 46.3662 12.744C46.5252 12.479 44.1942 9.56501 42.9222 8.55901C41.9979 7.84073 40.8618 7.44867 39.6912 7.44401C38.6205 7.43557 37.5742 7.76341 36.6997 8.3813C35.8253 8.99919 35.1668 9.87597 34.8172 10.888C32.5891 12.4485 30.119 13.631 27.5062 14.388C23.9562 15.342 20.3012 14.441 17.8642 14.6C17.1892 14.5981 16.5208 14.7324 15.8989 14.9946C15.277 15.2569 14.7143 15.6419 14.2445 16.1265C13.7747 16.6112 13.4074 17.1856 13.1646 17.8153C12.9217 18.4451 12.8084 19.1174 12.8312 19.792C12.8842 22.547 14.7912 25.037 14.7912 27.633C14.8012 28.0094 14.7361 28.3841 14.5997 28.7351C14.4634 29.0861 14.2585 29.4064 13.997 29.6774C13.7355 29.9484 13.4227 30.1646 13.0768 30.3134C12.7309 30.4621 12.3588 30.5406 11.9822 30.544C10.6052 30.544 10.5522 30.014 10.1282 30.014C10.079 30.0012 10.0276 29.9997 9.97769 30.0095C9.92781 30.0193 9.88077 30.0402 9.84005 30.0706C9.79934 30.1011 9.76599 30.1403 9.74248 30.1853C9.71897 30.2304 9.70589 30.2802 9.70422 30.331C9.70422 31.02 11.4042 31.656 12.3532 31.656C13.056 31.6813 13.7539 31.5298 14.3829 31.2153C15.0119 30.9008 15.5518 30.4334 15.9532 29.856C16.2238 30.4578 16.6757 30.9599 17.2457 31.2923C17.8156 31.6247 18.4752 31.7708 19.1322 31.71C21.1452 31.71 21.9932 30.756 21.9932 29.962C21.9932 29.326 21.6222 29.062 21.3042 28.637C21.0453 28.2848 20.9144 27.8547 20.9332 27.418C21.2853 27.4555 21.6392 27.4732 21.9932 27.471C23.4232 27.471 23.9002 26.888 23.9002 26.305C23.9002 25.563 23.0522 25.616 23.0522 24.398C23.0522 23.444 23.5822 23.179 24.0062 23.179C24.4832 23.179 26.3372 23.338 28.6152 23.603C29.3572 23.656 31.2152 24.398 31.2152 27.312V28.372C31.2152 30.12 31.9042 32.346 35.0832 32.346C37.2022 32.346 38.4212 31.18 38.4212 30.28C38.4212 29.697 37.9442 29.485 37.6792 29.114C37.4474 28.7778 37.2937 28.3939 37.2295 27.9906C37.1653 27.5872 37.1922 27.1746 37.3082 26.783" fill="#F26724"/>
<path d="M42.4452 14.119C42.3718 14.119 42.3001 14.1408 42.2391 14.1815C42.1781 14.2223 42.1305 14.2802 42.1025 14.348C42.0744 14.4158 42.067 14.4904 42.0813 14.5624C42.0957 14.6344 42.131 14.7005 42.1829 14.7523C42.2348 14.8042 42.3009 14.8396 42.3728 14.8539C42.4448 14.8682 42.5194 14.8608 42.5872 14.8328C42.655 14.8047 42.7129 14.7571 42.7537 14.6961C42.7945 14.6351 42.8162 14.5634 42.8162 14.49C42.8175 14.441 42.8087 14.3922 42.7905 14.3466C42.7723 14.301 42.745 14.2596 42.7103 14.2249C42.6756 14.1902 42.6342 14.1629 42.5886 14.1447C42.5431 14.1265 42.4943 14.1178 42.4452 14.119Z" fill="white"/>
<path d="M43.7172 13.007C43.6543 13.007 43.5928 13.0257 43.5405 13.0606C43.4882 13.0955 43.4474 13.1452 43.4234 13.2033C43.3993 13.2614 43.393 13.3254 43.4053 13.387C43.4176 13.4487 43.4478 13.5054 43.4923 13.5499C43.5368 13.5943 43.5934 13.6246 43.6551 13.6369C43.7168 13.6492 43.7808 13.6429 43.8389 13.6188C43.897 13.5947 43.9466 13.554 43.9816 13.5017C44.0165 13.4494 44.0352 13.3879 44.0352 13.325C44.037 13.2828 44.0301 13.2406 44.0147 13.2012C43.9994 13.1617 43.976 13.126 43.9461 13.096C43.9162 13.0661 43.8804 13.0428 43.841 13.0275C43.8016 13.0121 43.7594 13.0052 43.7172 13.007Z" fill="white"/>
<path d="M44.3531 11.788C44.3007 11.788 44.2495 11.8036 44.2059 11.8327C44.1623 11.8618 44.1284 11.9032 44.1083 11.9516C44.0883 12 44.083 12.0533 44.0932 12.1047C44.1035 12.1561 44.1287 12.2033 44.1658 12.2404C44.2028 12.2775 44.25 12.3027 44.3014 12.3129C44.3528 12.3232 44.4061 12.3179 44.4545 12.2979C44.503 12.2778 44.5444 12.2438 44.5735 12.2003C44.6026 12.1567 44.6181 12.1054 44.6181 12.053C44.6137 11.9842 44.5843 11.9194 44.5355 11.8706C44.4868 11.8218 44.422 11.7925 44.3531 11.788Z" fill="white"/>
<path d="M33.7571 13.537C33.841 13.537 33.923 13.5122 33.9927 13.4656C34.0624 13.419 34.1168 13.3528 34.1489 13.2753C34.1809 13.1978 34.1893 13.1126 34.173 13.0303C34.1566 12.9481 34.1162 12.8725 34.0569 12.8132C33.9976 12.7539 33.9221 12.7135 33.8399 12.6972C33.7576 12.6808 33.6724 12.6892 33.5949 12.7213C33.5174 12.7534 33.4512 12.8077 33.4046 12.8775C33.358 12.9472 33.3331 13.0292 33.3331 13.113C33.3861 13.378 33.5451 13.537 33.7571 13.537Z" fill="white"/>
<path d="M35.2932 23.179C35.24 23.1796 35.1876 23.1914 35.1393 23.2136C35.091 23.2359 35.0479 23.2681 35.0129 23.3081C34.9779 23.3481 34.9517 23.395 34.9361 23.4459C34.9204 23.4967 34.9157 23.5502 34.9222 23.603C34.9179 23.7078 34.954 23.8102 35.023 23.8891C35.0921 23.968 35.1888 24.0174 35.2932 24.027C35.3491 24.0278 35.4046 24.0174 35.4564 23.9964C35.5082 23.9754 35.5553 23.9442 35.5948 23.9046C35.6343 23.8651 35.6655 23.818 35.6866 23.7662C35.7076 23.7144 35.718 23.6589 35.7172 23.603C35.6642 23.391 35.5052 23.179 35.2932 23.179Z" fill="white"/>
<path d="M37.6772 23.603C37.5933 23.603 37.5113 23.6279 37.4416 23.6745C37.3719 23.7211 37.3175 23.7873 37.2854 23.8648C37.2534 23.9422 37.245 24.0275 37.2613 24.1097C37.2777 24.192 37.3181 24.2675 37.3774 24.3268C37.4367 24.3861 37.5122 24.4265 37.5945 24.4429C37.6767 24.4592 37.762 24.4508 37.8394 24.4188C37.9169 24.3867 37.9831 24.3323 38.0297 24.2626C38.0763 24.1929 38.1012 24.1109 38.1012 24.027C38.0482 23.762 37.8892 23.603 37.6772 23.603Z" fill="white"/>
<path d="M35.6111 19.576C35.4987 19.576 35.3908 19.6206 35.3113 19.7002C35.2318 19.7797 35.1871 19.8875 35.1871 20C35.1871 20.1124 35.2318 20.2203 35.3113 20.2998C35.3908 20.3793 35.4987 20.424 35.6111 20.424C35.6681 20.4292 35.7256 20.4218 35.7794 20.4024C35.8332 20.3829 35.8821 20.3518 35.9225 20.3114C35.963 20.2709 35.9941 20.222 36.0135 20.1682C36.033 20.1144 36.0404 20.057 36.0351 20C36.0359 19.9441 36.0255 19.8886 36.0045 19.8368C35.9835 19.785 35.9523 19.7379 35.9128 19.6984C35.8732 19.6588 35.8262 19.6276 35.7743 19.6066C35.7225 19.5856 35.667 19.5752 35.6111 19.576Z" fill="white"/>
<path d="M36.9892 16.875C37.1016 16.875 37.2095 16.8303 37.289 16.7508C37.3685 16.6713 37.4132 16.5634 37.4132 16.451C37.4132 16.3385 37.3685 16.2307 37.289 16.1512C37.2095 16.0716 37.1016 16.027 36.9892 16.027C36.8868 16.0411 36.7929 16.0918 36.7249 16.1697C36.657 16.2477 36.6196 16.3476 36.6196 16.451C36.6196 16.5544 36.657 16.6543 36.7249 16.7322C36.7929 16.8102 36.8868 16.8609 36.9892 16.875Z" fill="white"/>
<path d="M30.7371 15.232C30.821 15.232 30.9029 15.2071 30.9727 15.1605C31.0424 15.1139 31.0967 15.0477 31.1288 14.9702C31.1609 14.8928 31.1693 14.8075 31.153 14.7253C31.1366 14.643 31.0962 14.5675 31.0369 14.5082C30.9776 14.4489 30.9021 14.4085 30.8198 14.3921C30.7376 14.3758 30.6523 14.3842 30.5749 14.4162C30.4974 14.4483 30.4312 14.5027 30.3846 14.5724C30.338 14.6421 30.3131 14.7241 30.3131 14.808C30.3661 15.073 30.5251 15.232 30.7371 15.232Z" fill="white"/>
<path d="M33.0152 22.384C32.9314 22.384 32.8494 22.4088 32.7797 22.4554C32.71 22.502 32.6556 22.5682 32.6235 22.6457C32.5914 22.7232 32.583 22.8084 32.5994 22.8907C32.6158 22.9729 32.6561 23.0485 32.7154 23.1078C32.7747 23.1671 32.8503 23.2075 32.9325 23.2238C33.0148 23.2402 33.1 23.2318 33.1775 23.1997C33.255 23.1676 33.3212 23.1133 33.3678 23.0435C33.4144 22.9738 33.4392 22.8918 33.4392 22.808C33.3862 22.543 33.2272 22.384 33.0152 22.384Z" fill="white"/>
<path d="M31.9021 17.192C31.9553 17.1914 32.0078 17.1796 32.0561 17.1574C32.1044 17.1351 32.1474 17.1029 32.1824 17.0629C32.2175 17.0229 32.2436 16.976 32.2593 16.9251C32.2749 16.8743 32.2796 16.8208 32.2732 16.768C32.2774 16.6632 32.2413 16.5608 32.1723 16.4819C32.1033 16.403 32.0065 16.3536 31.9021 16.344C31.7897 16.344 31.6819 16.3887 31.6023 16.4682C31.5228 16.5477 31.4781 16.6555 31.4781 16.768C31.4781 16.8804 31.5228 16.9883 31.6023 17.0678C31.6819 17.1473 31.7897 17.192 31.9021 17.192Z" fill="white"/>
<path d="M29.3592 19.47C29.2753 19.47 29.1933 19.4948 29.1236 19.5414C29.0539 19.588 28.9995 19.6542 28.9675 19.7317C28.9354 19.8092 28.927 19.8944 28.9433 19.9767C28.9597 20.0589 29.0001 20.1345 29.0594 20.1938C29.1187 20.2531 29.1942 20.2935 29.2765 20.3098C29.3587 20.3262 29.444 20.3178 29.5214 20.2857C29.5989 20.2536 29.6651 20.1993 29.7117 20.1295C29.7583 20.0598 29.7832 19.9778 29.7832 19.894C29.7757 19.784 29.7286 19.6804 29.6507 19.6025C29.5727 19.5245 29.4692 19.4775 29.3592 19.47Z" fill="white"/>
<path d="M33.4921 19.047C33.576 19.047 33.658 19.0221 33.7277 18.9755C33.7974 18.9289 33.8518 18.8627 33.8838 18.7852C33.9159 18.7078 33.9243 18.6225 33.908 18.5403C33.8916 18.458 33.8512 18.3825 33.7919 18.3232C33.7326 18.2639 33.6571 18.2235 33.5748 18.2071C33.4926 18.1908 33.4073 18.1992 33.3299 18.2312C33.2524 18.2633 33.1862 18.3177 33.1396 18.3874C33.093 18.4571 33.0681 18.5391 33.0681 18.623C33.1211 18.888 33.2801 19.047 33.4921 19.047Z" fill="white"/>
<path d="M27.1872 15.497C27.1033 15.497 27.0214 15.5219 26.9516 15.5684C26.8819 15.615 26.8276 15.6813 26.7955 15.7587C26.7634 15.8362 26.755 15.9215 26.7713 16.0037C26.7877 16.086 26.8281 16.1615 26.8874 16.2208C26.9467 16.2801 27.0222 16.3205 27.1045 16.3368C27.1867 16.3532 27.272 16.3448 27.3494 16.3127C27.4269 16.2806 27.4931 16.2263 27.5397 16.1566C27.5863 16.0868 27.6112 16.0049 27.6112 15.921C27.612 15.8651 27.6016 15.8096 27.5806 15.7578C27.5595 15.706 27.5283 15.6589 27.4888 15.6194C27.4493 15.5798 27.4022 15.5486 27.3504 15.5276C27.2986 15.5066 27.2431 15.4962 27.1872 15.497Z" fill="white"/>
<path d="M28.0882 17.563C28.0043 17.563 27.9224 17.5879 27.8526 17.6344C27.7829 17.681 27.7286 17.7473 27.6965 17.8247C27.6644 17.9022 27.656 17.9875 27.6723 18.0697C27.6887 18.152 27.7291 18.2275 27.7884 18.2868C27.8477 18.3461 27.9232 18.3865 28.0055 18.4028C28.0877 18.4192 28.173 18.4108 28.2504 18.3787C28.3279 18.3466 28.3941 18.2923 28.4407 18.2225C28.4873 18.1528 28.5122 18.0708 28.5122 17.987C28.4592 17.722 28.3002 17.563 28.0882 17.563Z" fill="white"/>
<path d="M31.0021 21.007C30.9183 21.007 30.8363 21.0319 30.7666 21.0785C30.6968 21.1251 30.6425 21.1913 30.6104 21.2688C30.5783 21.3462 30.5699 21.4315 30.5863 21.5137C30.6026 21.596 30.643 21.6715 30.7023 21.7308C30.7616 21.7901 30.8372 21.8305 30.9194 21.8469C31.0017 21.8632 31.0869 21.8548 31.1644 21.8227C31.2419 21.7907 31.3081 21.7363 31.3547 21.6666C31.4013 21.5969 31.4261 21.5149 31.4261 21.431C31.3731 21.219 31.2141 21.007 31.0021 21.007Z" fill="white"/>
<path d="M35.081 15.391C35.1649 15.391 35.2469 15.3661 35.3166 15.3195C35.3863 15.2729 35.4407 15.2067 35.4728 15.1292C35.5049 15.0517 35.5133 14.9665 35.4969 14.8842C35.4805 14.802 35.4402 14.7265 35.3809 14.6672C35.3216 14.6079 35.246 14.5675 35.1638 14.5511C35.0815 14.5348 34.9963 14.5432 34.9188 14.5752C34.8413 14.6073 34.7751 14.6617 34.7285 14.7314C34.6819 14.8011 34.657 14.8831 34.657 14.967C34.71 15.232 34.869 15.391 35.081 15.391Z" fill="white"/>
<path d="M37.9951 20.318C37.9112 20.318 37.8293 20.3428 37.7595 20.3894C37.6898 20.436 37.6355 20.5022 37.6034 20.5797C37.5713 20.6572 37.5629 20.7424 37.5793 20.8247C37.5956 20.9069 37.636 20.9825 37.6953 21.0418C37.7546 21.1011 37.8301 21.1415 37.9124 21.1578C37.9946 21.1742 38.0799 21.1658 38.1574 21.1337C38.2348 21.1016 38.3011 21.0473 38.3477 20.9775C38.3942 20.9078 38.4191 20.8258 38.4191 20.742C38.4199 20.6861 38.4095 20.6306 38.3885 20.5788C38.3675 20.527 38.3363 20.4799 38.2967 20.4404C38.2572 20.4008 38.2101 20.3696 38.1583 20.3486C38.1065 20.3276 38.051 20.3172 37.9951 20.318Z" fill="white"/>
<path d="M39.0021 17.086C38.8897 17.086 38.7818 17.1307 38.7023 17.2102C38.6228 17.2897 38.5781 17.3975 38.5781 17.51C38.5781 17.6224 38.6228 17.7303 38.7023 17.8098C38.7818 17.8893 38.8897 17.934 39.0021 17.934C39.0591 17.9392 39.1166 17.9318 39.1704 17.9124C39.2242 17.8929 39.2731 17.8618 39.3135 17.8214C39.354 17.7809 39.3851 17.732 39.4045 17.6782C39.424 17.6244 39.4314 17.567 39.4261 17.51C39.4269 17.4541 39.4165 17.3986 39.3955 17.3468C39.3745 17.295 39.3433 17.2479 39.3037 17.2084C39.2642 17.1688 39.2171 17.1376 39.1653 17.1166C39.1135 17.0956 39.058 17.0852 39.0021 17.086Z" fill="white"/>
<path d="M38.7371 13.801C38.6532 13.801 38.5713 13.8259 38.5015 13.8725C38.4318 13.9191 38.3775 13.9853 38.3454 14.0628C38.3133 14.1402 38.3049 14.2255 38.3213 14.3077C38.3376 14.39 38.378 14.4655 38.4373 14.5248C38.4966 14.5841 38.5721 14.6245 38.6544 14.6409C38.7366 14.6572 38.8219 14.6488 38.8994 14.6167C38.9768 14.5846 39.0431 14.5303 39.0897 14.4606C39.1362 14.3908 39.1611 14.3089 39.1611 14.225C39.1663 14.168 39.159 14.1106 39.1395 14.0568C39.12 14.0029 39.089 13.9541 39.0485 13.9136C39.008 13.8731 38.9592 13.8421 38.9054 13.8226C38.8515 13.8032 38.7941 13.7958 38.7371 13.801Z" fill="white"/>
<path d="M40.6442 14.384C40.5604 14.384 40.4784 14.4088 40.4087 14.4554C40.3389 14.502 40.2846 14.5682 40.2525 14.6457C40.2204 14.7232 40.212 14.8084 40.2284 14.8907C40.2447 14.9729 40.2851 15.0485 40.3444 15.1078C40.4037 15.1671 40.4792 15.2075 40.5615 15.2238C40.6437 15.2402 40.729 15.2318 40.8065 15.1997C40.8839 15.1676 40.9502 15.1133 40.9968 15.0435C41.0434 14.9738 41.0682 14.8918 41.0682 14.808C41.0607 14.698 41.0137 14.5944 40.9357 14.5165C40.8578 14.4385 40.7542 14.3915 40.6442 14.384Z" fill="white"/>
<path d="M37.3592 12.583C37.2753 12.583 37.1933 12.6079 37.1236 12.6545C37.0539 12.7011 36.9995 12.7673 36.9675 12.8447C36.9354 12.9222 36.927 13.0075 36.9433 13.0897C36.9597 13.172 37.0001 13.2475 37.0594 13.3068C37.1187 13.3661 37.1942 13.4065 37.2765 13.4229C37.3587 13.4392 37.444 13.4308 37.5214 13.3987C37.5989 13.3666 37.6651 13.3123 37.7117 13.2426C37.7583 13.1728 37.7832 13.0909 37.7832 13.007C37.7302 12.742 37.5712 12.583 37.3592 12.583Z" fill="white"/>
<path d="M36.5651 11.046C36.4813 11.046 36.3993 11.0709 36.3296 11.1175C36.2598 11.1641 36.2055 11.2303 36.1734 11.3078C36.1413 11.3852 36.1329 11.4705 36.1493 11.5527C36.1656 11.635 36.206 11.7105 36.2653 11.7698C36.3246 11.8291 36.4002 11.8695 36.4824 11.8859C36.5646 11.9022 36.6499 11.8938 36.7274 11.8617C36.8048 11.8297 36.8711 11.7753 36.9177 11.7056C36.9642 11.6359 36.9891 11.5539 36.9891 11.47C36.9361 11.258 36.7771 11.046 36.5651 11.046Z" fill="white"/>
<path d="M38.2072 11.046C38.1233 11.046 38.0414 11.0709 37.9716 11.1175C37.9019 11.1641 37.8476 11.2303 37.8155 11.3078C37.7834 11.3852 37.775 11.4705 37.7914 11.5527C37.8077 11.635 37.8481 11.7105 37.9074 11.7698C37.9667 11.8291 38.0422 11.8695 38.1245 11.8859C38.2067 11.9022 38.292 11.8938 38.3695 11.8617C38.4469 11.8297 38.5132 11.7753 38.5597 11.7056C38.6063 11.6359 38.6312 11.5539 38.6312 11.47C38.6237 11.36 38.5766 11.2565 38.4987 11.1785C38.4207 11.1006 38.3172 11.0535 38.2072 11.046Z" fill="white"/>
<path d="M36.3002 9.98699C36.3058 9.9045 36.3411 9.82684 36.3996 9.76837C36.4581 9.70991 36.5357 9.6746 36.6182 9.66899C36.6605 9.66715 36.7027 9.67411 36.7421 9.68944C36.7815 9.70477 36.8173 9.72813 36.8472 9.75803C36.8771 9.78794 36.9005 9.82374 36.9158 9.86315C36.9311 9.90257 36.9381 9.94474 36.9362 9.98699C36.9362 10.0713 36.9027 10.1522 36.8431 10.2119C36.7835 10.2715 36.7026 10.305 36.6182 10.305C36.5339 10.305 36.453 10.2715 36.3934 10.2119C36.3337 10.1522 36.3002 10.0713 36.3002 9.98699Z" fill="white"/>
<path d="M37.3062 8.76799C37.3062 8.71558 37.3217 8.66434 37.3508 8.62076C37.3799 8.57719 37.4213 8.54322 37.4697 8.52316C37.5182 8.50311 37.5714 8.49786 37.6229 8.50808C37.6743 8.51831 37.7215 8.54355 37.7585 8.58061C37.7956 8.61767 37.8208 8.66489 37.8311 8.71629C37.8413 8.7677 37.836 8.82098 37.816 8.8694C37.7959 8.91782 37.762 8.95921 37.7184 8.98833C37.6748 9.01745 37.6236 9.03299 37.5712 9.03299C37.5023 9.02852 37.4375 8.99917 37.3887 8.95041C37.34 8.90164 37.3106 8.83681 37.3062 8.76799Z" fill="white"/>
<path d="M38.5781 8.186C38.5781 8.14407 38.5906 8.10308 38.6139 8.06822C38.6371 8.03336 38.6703 8.00618 38.709 7.99014C38.7477 7.97409 38.7904 7.96989 38.8315 7.97807C38.8726 7.98625 38.9104 8.00644 38.94 8.03609C38.9697 8.06574 38.9899 8.10352 38.9981 8.14464C39.0062 8.18576 39.002 8.22839 38.986 8.26713C38.9699 8.30587 38.9428 8.33898 38.9079 8.36227C38.873 8.38557 38.8321 8.398 38.7901 8.398C38.7351 8.39426 38.6834 8.37072 38.6444 8.33175C38.6054 8.29277 38.5819 8.24099 38.5781 8.186Z" fill="white"/>
<path d="M44.0881 10.94C44.0881 10.8981 44.1006 10.8571 44.1239 10.8222C44.1472 10.7874 44.1803 10.7602 44.219 10.7442C44.2577 10.7281 44.3004 10.7239 44.3415 10.7321C44.3826 10.7403 44.4204 10.7605 44.45 10.7901C44.4797 10.8198 44.4999 10.8575 44.5081 10.8987C44.5162 10.9398 44.512 10.9824 44.496 11.0212C44.4799 11.0599 44.4528 11.093 44.4179 11.1163C44.3831 11.1396 44.3421 11.152 44.3001 11.152C44.2451 11.1483 44.1934 11.1247 44.1544 11.0858C44.1154 11.0468 44.0919 10.995 44.0881 10.94Z" fill="white"/>
<path d="M43.7701 14.914C43.7701 14.8721 43.7826 14.8311 43.8059 14.7962C43.8292 14.7614 43.8623 14.7342 43.901 14.7182C43.9397 14.7021 43.9824 14.6979 44.0235 14.7061C44.0646 14.7143 44.1024 14.7345 44.132 14.7641C44.1617 14.7938 44.1819 14.8315 44.1901 14.8727C44.1982 14.9138 44.194 14.9564 44.178 14.9952C44.162 15.0339 44.1348 15.067 44.0999 15.0903C44.0651 15.1136 44.0241 15.126 43.9821 15.126C43.9291 15.126 43.8231 15.02 43.7701 14.914Z" fill="white"/>
<path d="M44.3531 14.172C44.3531 14.1301 44.3656 14.0891 44.3889 14.0542C44.4122 14.0194 44.4453 13.9922 44.484 13.9762C44.5228 13.9601 44.5654 13.9559 44.6065 13.9641C44.6476 13.9723 44.6854 13.9925 44.7151 14.0221C44.7447 14.0518 44.7649 14.0895 44.7731 14.1307C44.7813 14.1718 44.7771 14.2144 44.761 14.2532C44.745 14.2919 44.7178 14.325 44.6829 14.3483C44.6481 14.3716 44.6071 14.384 44.5651 14.384C44.5102 14.3803 44.4584 14.3567 44.4194 14.3178C44.3804 14.2788 44.3569 14.227 44.3531 14.172Z" fill="white"/>
<path d="M43.1871 15.709C43.1871 15.6671 43.1996 15.6261 43.2229 15.5912C43.2462 15.5564 43.2793 15.5292 43.318 15.5131C43.3567 15.4971 43.3994 15.4929 43.4405 15.5011C43.4816 15.5093 43.5194 15.5295 43.549 15.5591C43.5787 15.5888 43.5989 15.6265 43.6071 15.6677C43.6152 15.7088 43.611 15.7514 43.595 15.7901C43.579 15.8289 43.5518 15.862 43.5169 15.8853C43.4821 15.9086 43.4411 15.921 43.3991 15.921C43.3441 15.9173 43.2924 15.8937 43.2534 15.8548C43.2144 15.8158 43.1909 15.764 43.1871 15.709Z" fill="white"/>
<path d="M42.4982 16.397C42.4982 16.3551 42.5106 16.3141 42.5339 16.2792C42.5572 16.2444 42.5903 16.2172 42.629 16.2011C42.6678 16.1851 42.7104 16.1809 42.7515 16.1891C42.7926 16.1973 42.8304 16.2174 42.8601 16.2471C42.8897 16.2767 42.9099 16.3145 42.9181 16.3556C42.9263 16.3968 42.9221 16.4394 42.906 16.4781C42.89 16.5169 42.8628 16.55 42.8279 16.5733C42.7931 16.5966 42.7521 16.609 42.7102 16.609C42.6042 16.609 42.5512 16.503 42.4982 16.397Z" fill="white"/>
<path d="M44.8823 13.378C44.8823 13.3361 44.8947 13.2951 44.918 13.2602C44.9413 13.2254 44.9744 13.1982 45.0131 13.1822C45.0519 13.1661 45.0945 13.1619 45.1356 13.1701C45.1767 13.1783 45.2145 13.1985 45.2442 13.2281C45.2738 13.2578 45.294 13.2955 45.3022 13.3367C45.3104 13.3778 45.3062 13.4204 45.2901 13.4591C45.2741 13.4979 45.2469 13.531 45.212 13.5543C45.1772 13.5776 45.1362 13.59 45.0943 13.59C45.0393 13.5863 44.9875 13.5627 44.9485 13.5238C44.9095 13.4848 44.886 13.433 44.8823 13.378Z" fill="white"/>
<path d="M45.2532 12.689C45.2532 12.6471 45.2656 12.6061 45.2889 12.5712C45.3122 12.5363 45.3453 12.5092 45.384 12.4931C45.4228 12.4771 45.4654 12.4729 45.5065 12.4811C45.5477 12.4892 45.5854 12.5094 45.6151 12.5391C45.6447 12.5687 45.6649 12.6065 45.6731 12.6476C45.6813 12.6888 45.6771 12.7314 45.661 12.7701C45.645 12.8089 45.6178 12.842 45.583 12.8653C45.5481 12.8886 45.5071 12.901 45.4652 12.901C45.3592 12.901 45.3062 12.848 45.2532 12.689Z" fill="white"/>
<path d="M20.3522 29.589C19.9287 28.8191 19.6678 27.9704 19.5857 27.0955C19.5037 26.2206 19.6022 25.3382 19.8752 24.503C20.9882 21.642 24.2192 22.013 24.2192 22.013C23.6854 21.775 23.103 21.666 22.5192 21.695C21.405 21.7915 20.3742 22.3247 19.6515 23.1781C18.9288 24.0316 18.5728 25.1362 18.6612 26.251C18.7106 26.892 18.8862 27.5169 19.1779 28.0897C19.4697 28.6626 19.8718 29.1721 20.3612 29.589" fill="white"/>
<path d="M15.0022 21.536C14.6805 21.2173 14.4257 20.8376 14.2528 20.4191C14.0799 20.0006 13.9923 19.5518 13.9952 19.099C14.0111 18.1905 14.3791 17.3238 15.0215 16.6813C15.664 16.0389 16.5308 15.6709 17.4392 15.655C19.3992 15.549 23.0022 16.132 25.3332 15.814C26.1282 19.364 28.7772 21.854 30.7332 23.443C28.3492 22.383 25.9652 19.575 23.2102 18.043C20.3492 16.454 17.4352 16.189 15.8992 17.619C15.4124 18.1324 15.0722 18.767 14.9139 19.4566C14.7556 20.1462 14.785 20.8656 14.9992 21.54" fill="white"/>
<path d="M23.1653 25.139C23.3243 26.146 21.4653 26.516 21.4653 26.516C23.1653 26.834 23.6903 25.933 23.6903 25.933C23.5456 25.648 23.3677 25.3811 23.1603 25.138" fill="white"/>
<path d="M36.5641 25.669C36.5641 25.669 35.4511 27.205 36.2461 30.069C35.6637 30.526 34.998 30.8656 34.2861 31.069C34.2861 31.069 36.8291 31.387 37.6241 30.062C36.0351 28.843 36.5111 25.877 36.5641 25.662" fill="white"/>
<path d="M41.5982 9.45702C41.1697 9.34029 40.7124 9.39725 40.3256 9.61554C39.9388 9.83383 39.6537 10.1958 39.5322 10.623C39.5111 10.8428 39.5344 11.0646 39.6008 11.2751C39.6672 11.4857 39.7753 11.6807 39.9186 11.8487C40.0619 12.0166 40.2375 12.154 40.435 12.2527C40.6325 12.3513 40.8478 12.4093 41.0682 12.423C41.4967 12.5398 41.954 12.4828 42.3408 12.2645C42.7275 12.0462 43.0126 11.6842 43.1342 11.257C43.1553 11.0373 43.1319 10.8155 43.0655 10.6049C42.9992 10.3944 42.8911 10.1993 42.7478 10.0314C42.6045 9.86344 42.4289 9.72604 42.2314 9.62737C42.0339 9.5287 41.8185 9.47077 41.5982 9.45702ZM42.8702 11.205C42.781 11.5109 42.5765 11.7703 42.2999 11.9285C42.0233 12.0867 41.6961 12.1313 41.3872 12.053C41.2338 12.0397 41.0846 11.9962 40.9482 11.9249C40.8117 11.8537 40.6907 11.7561 40.5922 11.6378C40.4937 11.5196 40.4195 11.383 40.374 11.2359C40.3285 11.0889 40.3126 10.9343 40.3272 10.781C40.4164 10.4751 40.6208 10.2157 40.8975 10.0576C41.1741 9.89939 41.5013 9.85474 41.8102 9.93302C41.9635 9.94633 42.1127 9.98986 42.2492 10.0611C42.3856 10.1324 42.5066 10.23 42.6052 10.3482C42.7037 10.4665 42.7779 10.6031 42.8233 10.7501C42.8688 10.8972 42.8848 11.0518 42.8702 11.205Z" fill="white"/>
<path d="M41.5452 10.941C41.5934 10.776 41.702 10.6353 41.8493 10.5469C41.9967 10.4585 42.1719 10.4289 42.3402 10.464C42.5086 10.4785 42.6645 10.5591 42.7738 10.6882C42.883 10.8173 42.9367 10.9844 42.9232 11.153C42.8749 11.3179 42.7663 11.4586 42.619 11.547C42.4716 11.6354 42.2964 11.6651 42.1282 11.63C41.9597 11.6155 41.8038 11.5348 41.6945 11.4057C41.5853 11.2766 41.5316 11.1095 41.5452 10.941Z" fill="white"/>
<path d="M39.4781 24.291C40.0611 25.404 38.1531 25.827 38.1531 25.827C39.5301 26.039 40.2721 25.244 40.2721 24.873C39.9804 24.7179 39.7127 24.5216 39.4771 24.29" fill="white"/>
<path d="M27.5581 20.636C27.5581 20.636 27.8231 20.954 28.2471 21.378C28.782 21.8912 29.3499 22.3689 29.9471 22.808C30.5311 23.2483 31.1513 23.6384 31.8011 23.974C32.0017 24.1014 32.2148 24.208 32.4371 24.292C32.197 24.2103 31.9661 24.1037 31.7481 23.974C31.0693 23.6498 30.4143 23.2779 29.7881 22.861C29.1684 22.4512 28.5837 21.9906 28.0401 21.484C27.7763 21.2537 27.5284 21.0058 27.2981 20.742C27.2724 20.7127 27.2583 20.675 27.2583 20.636C27.2583 20.597 27.2724 20.5594 27.2981 20.53C27.3965 20.5316 27.4908 20.5693 27.5631 20.636" fill="white"/>
<path d="M43.5582 10.358C43.3176 9.94157 42.976 9.5925 42.5648 9.343C42.1537 9.09351 41.6863 8.95165 41.2058 8.93052C40.7253 8.90939 40.2473 9.00968 39.8158 9.22212C39.3844 9.43456 39.0134 9.7523 38.7372 10.146C38.6994 10.1926 38.6526 10.2312 38.5997 10.2595C38.5467 10.2878 38.4887 10.3053 38.4289 10.3109C38.3691 10.3165 38.3088 10.3101 38.2516 10.292C38.1943 10.274 38.1412 10.2447 38.0954 10.2059C38.0496 10.1671 38.012 10.1195 37.9848 10.066C37.9577 10.0125 37.9414 9.95405 37.9371 9.89417C37.9328 9.83429 37.9405 9.77415 37.9598 9.71728C37.979 9.66041 38.0094 9.60796 38.0492 9.56299C38.3587 9.20822 38.7418 8.92514 39.1718 8.73345C39.6018 8.54176 40.0684 8.44605 40.5392 8.45299C41.1751 8.43465 41.8021 8.60627 42.34 8.94595C42.8779 9.28562 43.3024 9.77793 43.5592 10.36" fill="white"/>
<path d="M40.4322 16.243C39.1386 16.1069 37.9089 15.6115 36.8822 14.813C35.9609 14.1628 35.2 13.3113 34.6572 12.323C34.6042 12.164 34.6042 11.952 34.7632 11.899C34.7969 11.8746 34.8356 11.858 34.8765 11.8501C34.9173 11.8423 34.9594 11.8434 34.9998 11.8535C35.0402 11.8636 35.0779 11.8824 35.1102 11.9085C35.1426 11.9347 35.1689 11.9676 35.1872 12.005C35.6913 13.0468 36.4141 13.9677 37.3062 14.705C38.219 15.4466 39.2876 15.9723 40.4322 16.243Z" fill="white"/>
<path d="M39.0541 18.993C36.9217 18.799 34.9385 17.8167 33.4921 16.238C32.8067 15.5045 32.2191 14.6853 31.7441 13.801C31.7019 13.7307 31.6894 13.6466 31.7092 13.567C31.7291 13.4875 31.7798 13.4192 31.8501 13.377C31.9203 13.3348 32.0045 13.3223 32.084 13.3422C32.1635 13.3621 32.2319 13.4127 32.2741 13.483C32.7741 14.6222 33.4738 15.6629 34.3401 16.556C35.5889 17.8808 37.251 18.7404 39.0541 18.993Z" fill="white"/>
<path d="M28.7232 14.861C28.7615 14.8503 28.8015 14.8472 28.841 14.8521C28.8804 14.857 28.9185 14.8697 28.9531 14.8894C28.9876 14.9091 29.0178 14.9355 29.0421 14.967C29.0663 14.9985 29.084 15.0346 29.0942 15.073C29.651 16.708 30.5746 18.1939 31.7942 19.417C33.5547 21.1972 35.9168 22.2554 38.4172 22.384C35.7347 22.3793 33.1632 21.3126 31.2652 19.417C30.0821 18.247 29.1616 16.8384 28.5652 15.285C28.5411 15.2481 28.526 15.206 28.5212 15.1622C28.5164 15.1184 28.5219 15.074 28.5374 15.0328C28.5529 14.9915 28.5779 14.9544 28.6103 14.9246C28.6428 14.8948 28.6808 14.873 28.7232 14.861Z" fill="white"/>
<path d="M39.5311 12.477C40.0476 12.8246 40.6565 13.0093 41.2791 13.007C41.8078 13.0476 42.3328 12.8915 42.7534 12.5687C43.174 12.2459 43.4606 11.7792 43.5581 11.258C43.4903 11.8706 43.1986 12.4365 42.7391 12.8472C42.2795 13.2578 41.6844 13.4843 41.0681 13.483C40.4237 13.506 39.7845 13.3598 39.2141 13.059C39.1392 13.0212 39.0812 12.9566 39.0518 12.8781C39.0223 12.7995 39.0235 12.7127 39.0551 12.635C39.2141 12.476 39.4261 12.37 39.5321 12.476" fill="white"/>
</svg>
