<svg width="56" height="40" viewBox="0 0 56 40" fill="none" xmlns="http://www.w3.org/2000/svg">
<path fill-rule="evenodd" clip-rule="evenodd" d="M36.806 19.2277C39.3464 18.2568 41.0917 16.2465 41.0917 13.9244C41.0917 10.6526 37.6291 8.00062 33.3596 8.00062C33.1807 8.00062 33.0036 8.0056 32.8278 8.01495H29.2448C32.0464 9.1255 33.9607 11.3659 33.9607 13.9487C33.9607 16.0744 32.6638 17.9681 30.6422 19.1915C33.1988 20.5178 34.8824 22.7614 34.8824 25.3024C34.8824 28.2692 32.5964 30.8265 29.3003 31.9981H33.0479V31.9931C33.1533 31.9931 33.2593 31.9981 33.3653 31.9981C38.1666 31.9981 42.0576 29.0169 42.0576 25.3398C42.0532 22.6024 39.8926 20.2497 36.806 19.2277Z" fill="#0060AE"/>
<path fill-rule="evenodd" clip-rule="evenodd" d="M33.914 25.3417C33.914 22.6024 31.7534 20.2491 28.6668 19.2271C31.2072 18.2562 32.9525 16.2459 32.9525 13.9238C32.9525 10.652 29.4899 8.00001 25.2204 8.00001C25.0421 8.00001 24.8644 8.00501 24.6892 8.01436H13V32H24.9043V31.995C25.0097 31.995 25.1157 32 25.2217 32C30.0224 32 33.914 29.0188 33.914 25.3417ZM20.3056 13.4174L21.9973 13.4143C23.3691 13.4143 24.4778 14.2649 24.4778 15.3143C24.4778 16.3413 23.4146 17.1775 22.0852 17.213H20.3056V13.4174ZM22.7106 26.2178H20.3056V22.1809L22.6171 22.1778C24.0737 22.1778 25.2541 23.0819 25.2541 24.1975C25.2541 25.2906 24.1236 26.1797 22.7106 26.2178Z" fill="#0060AE"/>
</svg>
