<svg width="56" height="40" viewBox="0 0 56 40" fill="none" xmlns="http://www.w3.org/2000/svg">
<path d="M44.8565 14.1532C45.4937 14.1287 46.2044 14.1532 46.6456 14.3983C46.8662 14.5208 47.0377 14.7414 47.0867 14.9865C47.1113 15.109 47.0867 15.2315 47.0622 15.3541V15.3541C46.8907 15.9423 46.376 16.555 46.0084 17.0207C43.7781 19.8637 40.4204 21.4812 36.8912 22.4125C34.4404 23.0498 31.769 23.4419 29.1466 23.638C27.8231 23.736 26.5732 23.638 25.7644 23.3684C25.2497 23.1968 25.1027 22.5596 25.3477 22.1184C25.5928 21.7018 26.1075 21.1626 26.9653 20.5009C29.7103 18.3686 32.8473 17.0942 36.1315 15.9423C38.2882 15.1825 40.4204 14.5943 42.6997 14.3247C43.4105 14.2512 44.1457 14.1777 44.8565 14.1532Z" fill="#1A2965"/>
<path d="M16.01 29.7406C20.5196 30.3288 25.3723 30.2552 29.9308 29.2504C33.0434 28.5642 36.1315 27.3632 38.9254 25.7702C39.2195 25.5986 39.5381 25.4271 39.8077 25.2065C39.9548 25.1085 40.0773 24.9614 40.1263 24.7654C40.2734 24.0546 39.6607 23.5399 38.9744 23.736C35.1021 24.8389 29.2691 25.7947 25.5193 25.9172C21.4019 26.0643 20.4706 25.5251 20.2255 24.5938C20.0049 23.7115 21.0098 22.5106 22.5783 21.2116C26.0095 18.4177 30.2494 16.1874 34.4404 14.7169C38.4598 13.2954 43.1654 12.266 46.2044 12.217C46.5966 12.217 47.0377 12.266 47.4054 12.1435C47.6749 12.0455 47.8955 11.8739 47.969 11.5798C48.0671 11.1877 47.92 10.9426 47.6995 10.7465C47.3073 10.4279 46.7436 10.3789 46.2535 10.3054C44.4643 10.0358 41.6459 9.88872 39.048 9.88872C33.9747 9.86421 27.9211 10.771 22.7499 12.4866C18.4119 13.9081 13.118 16.359 9.90742 19.5696C8.55946 20.893 7.75068 22.5351 8.06929 24.4222C8.70651 28.2701 12.7014 29.2994 16.01 29.7406Z" fill="#1A2965"/>
</svg>
