<svg width="56" height="40" viewBox="0 0 56 40" fill="none" xmlns="http://www.w3.org/2000/svg">
<path d="M28.0163 8H27.3558L26.9573 8.03768L26.795 8.05045C23.4679 8.43368 20.4148 10.4929 20.4148 14.1183C20.4148 16.8597 21.873 19.1898 26.9445 21.5575C27.2434 21.7198 27.5551 21.8692 27.879 22.0308C30.446 23.3268 32.801 24.3737 32.801 26.5913C32.804 27.2152 32.6451 27.8292 32.3398 28.3733C33.5361 27.2147 34.3083 25.4199 34.6328 22.9902C33.7731 21.4074 32.014 19.9371 28.8134 18.4418C28.5145 18.2796 28.2028 18.1301 27.879 17.9685C25.3119 16.6726 22.9569 15.6257 22.9569 13.3953C22.9647 12.6471 23.1921 11.9176 23.6107 11.2974C24.0294 10.6772 24.6209 10.1936 25.3119 9.90658C26.1774 9.58879 27.0938 9.43249 28.0156 9.44543C33.4857 9.44543 35.4172 14.0308 35.4172 19.9997C35.4172 25.9935 33.4857 30.5539 28.0156 30.5539C22.5456 30.5539 20.6013 25.9935 20.6013 19.9997C20.5988 19.1715 20.6415 18.3437 20.7291 17.5202C20.1114 16.4854 19.7963 15.2982 19.8195 14.0934C19.7965 12.6596 20.2921 11.2658 21.2152 10.1685C18.4361 12.3241 16.8412 15.8633 16.8412 20.0003C16.8412 26.8161 21.1653 32 28.0188 32C34.8346 32 39.1588 26.8161 39.1588 20.0003C39.1588 13.2216 34.8346 8.00062 28.0188 8.00062" fill="#FAA21B"/>
</svg>
