<svg width="56" height="40" viewBox="0 0 56 40" fill="none" xmlns="http://www.w3.org/2000/svg">
<path d="M26.1757 21.5366C26.3073 22.8689 26.3731 23.5762 25.2875 24.7276C24.1526 25.9284 21.3069 28.1325 18.3955 29.8102C17.1619 30.5175 15.5005 31.3729 14.2504 31.8334C13.3129 32.1624 12.5398 32.3104 12.145 31.636C11.8983 31.1919 12.0134 30.7972 12.145 30.4517C13.1648 27.7048 16.0763 22.5728 17.9843 19.2337C18.1817 18.9048 18.3791 18.5429 18.5765 18.1975C21.5043 13.1477 25.3862 6.96302 26.1593 5.95965C26.258 5.82806 26.4718 5.66358 26.6528 5.76227C26.8008 5.84451 26.8008 6.02545 26.7843 6.15704C26.7843 6.17348 26.735 6.35442 26.7186 6.43666C25.452 11.5358 25.6 16.5362 26.1757 21.5366Z" fill="#45A3DB"/>
<path d="M30.4524 23.0992C29.2187 22.5399 28.5772 22.2439 28.1331 20.7306C27.6561 19.1515 27.1791 15.5821 27.1791 12.2266C27.1791 10.812 27.2613 8.93687 27.4916 7.62098C27.6725 6.65051 27.9357 5.89387 28.7253 5.89387C29.2187 5.89387 29.4983 6.20639 29.7451 6.50247C31.6202 8.73949 34.5974 13.8386 36.5384 17.1448C36.7358 17.4902 36.9331 17.8356 37.1305 18.1975C40.0419 23.2637 43.4633 29.7116 43.9403 30.863C44.0061 31.0275 44.0554 31.2906 43.8745 31.4058C43.71 31.488 43.562 31.3893 43.4633 31.3235C43.4468 31.3071 43.3152 31.1755 43.2494 31.1261C39.4662 27.4745 35.058 25.0895 30.4524 23.0992Z" fill="#45A3DB"/>
<path d="M26.9488 26.0271C28.0509 25.2375 28.6266 24.8263 30.1728 25.1882C31.7683 25.5829 35.0909 26.9482 38.0188 28.6259C39.236 29.3332 40.8151 30.3366 41.8349 31.1919C42.5915 31.8334 43.1014 32.442 42.7231 33.1164C42.4599 33.5605 42.0652 33.6428 41.6869 33.7086C38.8083 34.202 32.9033 34.2349 29.0707 34.2678C28.676 34.2678 28.2647 34.2678 27.8535 34.2678C22.0142 34.2514 14.7275 33.9882 13.4774 33.8237C13.2964 33.7908 13.0497 33.7086 13.0662 33.4948C13.0662 33.3138 13.2142 33.2316 13.3293 33.1822C13.3622 33.1658 13.5267 33.1164 13.609 33.1C18.6587 31.6361 22.9189 29.0207 26.9488 26.0271Z" fill="#45A3DB"/>
</svg>
