<svg width="56" height="40" viewBox="0 0 56 40" fill="none" xmlns="http://www.w3.org/2000/svg">
<path fill-rule="evenodd" clip-rule="evenodd" d="M38.4278 8.22853C39.9012 8.7469 41.1144 10.0303 41.6391 11.6254C42.5098 14.2729 41.9839 17.2082 39.9675 20.9564C37.5291 25.489 34.8982 28.5288 31.8393 30.3481C25.834 33.9197 19.2038 31.5547 15.8761 24.6539C15.0245 22.888 14.4551 20.9513 14.1154 18.6662C13.9257 17.3903 13.8994 13.4953 14.0719 12.2345C14.2378 11.0218 14.5241 9.39587 14.5945 9.2663C14.6297 9.20156 14.739 9.57094 14.8464 10.1182C15.335 12.6067 16.1652 15.3659 16.964 17.1562C19.4205 22.6613 23.2369 24.9964 27.8454 23.8143C31.9096 22.7716 36.3695 18.6666 37.6959 14.7475C37.9687 13.9416 37.9886 12.3751 37.7327 11.8594C37.1657 10.7165 35.7586 10.2208 33.7047 10.4402C33.1711 10.4973 32.3628 10.6331 31.9085 10.742L31.0826 10.9403L31.8595 10.203C32.9938 9.12668 34.2974 8.38996 35.5861 8.09708C36.3439 7.92483 37.7494 7.98983 38.4278 8.22853Z" fill="#9F216D"/>
<path d="M30.09 15.6372C28.185 11.9261 24.3695 9.23923 20.1785 8.65748C19.6017 8.5774 17.5068 8.56224 16.8987 8.63362C16.7347 8.65296 16.5675 8.70092 16.5271 8.74028C16.4233 8.84157 16.8404 10.0439 17.2752 10.8959C19.4534 15.1647 23.7184 17.9655 28.3596 18.1747C29.4218 18.2226 30.7572 18.1495 30.9453 18.0332C31.1017 17.9366 30.7168 16.8582 30.09 15.6372Z" fill="#45AF4B"/>
</svg>
