<svg width="56" height="40" viewBox="0 0 56 40" fill="none" xmlns="http://www.w3.org/2000/svg">
<path d="M27.0063 18.2954C26.9167 18.184 26.8183 18.0799 26.712 17.9843H26.7L20.9766 13.1654C20.7208 12.9037 20.5779 12.5521 20.5787 12.1862V7.88099C20.5783 7.86897 20.5805 7.85701 20.585 7.84586C20.5895 7.83471 20.5963 7.82462 20.6049 7.81623C20.6135 7.80784 20.6238 7.80134 20.635 7.79712C20.6463 7.79291 20.6583 7.79108 20.6703 7.79175C20.6829 7.79244 20.6953 7.79581 20.7065 7.80163C20.7177 7.80746 20.7276 7.8156 20.7354 7.82552L26.671 12.806C26.9249 13.0631 27.0678 13.4095 27.069 13.7708V17.6515C27.069 17.7624 27.069 17.8709 27.0521 17.9746C27.0352 18.0784 27.028 18.1965 27.0063 18.2954Z" fill="#E10514"/>
<path d="M26.9797 34.6696C26.9562 34.6694 26.9336 34.6598 26.917 34.643L26.8953 34.6237L20.9766 29.6529C20.7243 29.395 20.5824 29.0489 20.5811 28.6881V24.9039C20.5811 24.7616 20.5811 24.6193 20.598 24.4843C20.6055 24.3766 20.6192 24.2695 20.639 24.1635C20.7303 24.2779 20.8311 24.3844 20.9404 24.4819L26.6759 29.3056C26.9306 29.5623 27.0744 29.9087 27.0762 30.2703V34.5755C27.0759 34.5998 27.0664 34.623 27.0497 34.6406C27.0408 34.6502 27.0299 34.6577 27.0178 34.6627C27.0058 34.6676 26.9928 34.67 26.9797 34.6696Z" fill="#E10514"/>
<path d="M20.7644 23.0468C20.5232 23.3362 20.6872 23.6932 20.8777 23.9392C20.9608 24.0427 21.0528 24.1388 21.1527 24.2262L22.9423 22.7236L22.0427 21.9735L20.7644 23.0468Z" fill="#E10514"/>
<path d="M26.8133 19.4796C27.1606 19.1782 26.9725 18.785 26.7675 18.5149C26.6873 18.4112 26.5977 18.3151 26.4998 18.2279L25.0237 19.4676L25.9234 20.2225L26.8133 19.4796Z" fill="#E10514"/>
<path d="M26.9797 25.6733C26.9551 25.6723 26.9318 25.662 26.9146 25.6444C26.9088 25.6374 26.9024 25.6309 26.8953 25.6251L20.9766 20.6446C20.7192 20.3846 20.5745 20.0337 20.5738 19.6678V16.3635C20.5732 16.3511 20.5751 16.3386 20.5794 16.327C20.5837 16.3153 20.5903 16.3046 20.5989 16.2956C20.6075 16.2865 20.6178 16.2794 20.6293 16.2745C20.6407 16.2695 20.653 16.267 20.6655 16.267C20.6891 16.2673 20.7116 16.2768 20.7282 16.2936L20.7499 16.3129L26.671 21.2885C26.9249 21.5456 27.0678 21.892 27.069 22.2533V25.572C27.0684 25.5957 27.0589 25.6184 27.0423 25.6353C27.0258 25.6523 27.0034 25.6625 26.9797 25.6637V25.6733Z" fill="#E10514"/>
<path d="M27.2643 21.5924C27.1777 21.3879 27.0524 21.202 26.8953 21.0449L20.9621 16.0669C20.924 16.0273 20.878 15.996 20.8271 15.9752C20.7761 15.9529 20.7211 15.9414 20.6655 15.9414C20.609 15.9409 20.5531 15.9524 20.5015 15.9752L20.6245 16.2815C20.638 16.2788 20.652 16.2788 20.6655 16.2815C20.6782 16.279 20.6913 16.279 20.7041 16.2815L20.7282 16.2984L26.671 21.2885C26.7978 21.4177 26.8985 21.57 26.9677 21.7372L27.2643 21.5924Z" fill="#E10514"/>
<path d="M27.0183 25.654C27.0056 25.6568 26.9925 25.6568 26.9797 25.654C26.9662 25.6567 26.9523 25.6567 26.9387 25.654C26.9297 25.649 26.9215 25.6424 26.9146 25.6347L20.9766 20.6446C20.8501 20.5157 20.7501 20.3633 20.6824 20.196L20.3833 20.3407C20.4708 20.5447 20.596 20.7305 20.7523 20.8882L26.6855 25.8687C26.7243 25.9075 26.7701 25.9386 26.8206 25.9603C26.9259 26.0022 27.0433 26.0022 27.1486 25.9603L27.0183 25.654Z" fill="#E10514"/>
<path d="M26.9677 21.7372C27.0355 21.9041 27.0699 22.0827 27.069 22.2629L27.069 25.572C27.0717 25.5847 27.0717 25.5979 27.069 25.6106C27.0646 25.6201 27.058 25.6284 27.0497 25.6347C27.0426 25.6423 27.0345 25.6488 27.0256 25.654L27.151 25.9603C27.2506 25.9154 27.3303 25.8356 27.3753 25.736C27.3956 25.6837 27.4063 25.6281 27.4066 25.572V22.2629C27.4066 22.0327 27.3607 21.8048 27.2716 21.5924L26.9677 21.7372Z" fill="#E10514"/>
<path d="M20.6245 16.2815L20.6004 16.2984C20.5936 16.3065 20.588 16.3154 20.5835 16.3249C20.5793 16.3374 20.5793 16.351 20.5835 16.3635V19.6678C20.5825 19.849 20.6177 20.0286 20.6872 20.196L20.3881 20.3407C20.2988 20.1276 20.2529 19.8988 20.2531 19.6678V16.3635C20.253 16.3071 20.2645 16.2513 20.2868 16.1995C20.3062 16.1492 20.3367 16.1038 20.3761 16.0669C20.4093 16.0291 20.4494 15.998 20.4942 15.9752L20.6245 16.2815Z" fill="#E10514"/>
<path d="M27.2668 29.5998C27.1792 29.3945 27.0532 29.2078 26.8953 29.0499L21.1454 24.2262C21.1262 24.2093 21.0876 24.1755 21.0417 24.1273C20.9832 24.0681 20.9284 24.0053 20.8777 23.9392C20.7661 23.804 20.6876 23.6446 20.6486 23.4737C20.632 23.384 20.6406 23.2914 20.6734 23.2063C20.7062 23.1212 20.7619 23.0468 20.8343 22.9913C20.6843 23.1102 20.5673 23.2655 20.4942 23.4423C20.4493 23.5636 20.4377 23.6946 20.4606 23.8219C20.4835 23.9491 20.5401 24.0679 20.6245 24.1659C20.6848 24.2431 20.7475 24.3106 20.7981 24.3637L20.9163 24.477L26.6614 29.3008C26.7894 29.4289 26.8903 29.5814 26.958 29.7494L27.2668 29.5998Z" fill="#E10514"/>
<path d="M20.4942 23.4423C20.4493 23.5636 20.4377 23.6946 20.4606 23.8219C20.4835 23.9491 20.5401 24.0679 20.6245 24.1659C20.6245 24.2141 20.6076 24.2648 20.6004 24.3203C20.5931 24.3757 20.5883 24.4288 20.5835 24.4867C20.5787 24.5446 20.5835 24.5904 20.5835 24.6459C20.5835 24.7013 20.5835 24.7544 20.5835 24.8099V28.6689C20.5826 28.8491 20.617 29.0277 20.6848 29.1946L20.3857 29.3393C20.2985 29.1299 20.2534 28.9054 20.2531 28.6785C20.2531 28.6785 20.2531 24.8195 20.2531 24.8002C20.2531 24.7399 20.2531 24.6796 20.2531 24.6242C20.2531 24.5687 20.2531 24.5084 20.2651 24.4553C20.2828 24.107 20.3604 23.7644 20.4942 23.4423Z" fill="#E10514"/>
<path d="M26.9677 29.7445C27.0365 29.9121 27.0717 30.0916 27.0714 30.2727V34.5779C27.0745 34.5906 27.0745 34.6038 27.0714 34.6165C27.0669 34.626 27.0612 34.6349 27.0545 34.643C27.0475 34.6511 27.0383 34.657 27.028 34.6599L27.1534 34.9662C27.2042 34.9463 27.2502 34.9159 27.2885 34.877C27.3266 34.8381 27.3569 34.7923 27.3777 34.7419C27.4 34.6901 27.4115 34.6343 27.4115 34.5779V30.2727C27.4117 30.0417 27.3657 29.8129 27.2764 29.5998L26.9677 29.7445Z" fill="#E10514"/>
<path d="M20.3785 29.349C20.4668 29.5526 20.5919 29.7382 20.7475 29.8965L26.6831 34.877C26.7205 34.9158 26.7657 34.9463 26.8157 34.9662C26.8675 34.9885 26.9234 35 26.9797 35C27.0362 35.0002 27.092 34.9887 27.1438 34.9662L27.0183 34.6599C27.0057 34.663 26.9924 34.663 26.9797 34.6599C26.967 34.6624 26.9539 34.6624 26.9412 34.6599C26.9319 34.6563 26.9236 34.6505 26.917 34.643L20.9766 29.6529C20.8501 29.5241 20.7501 29.3716 20.6824 29.2043L20.3785 29.349Z" fill="#E10514"/>
<path d="M20.3785 12.8591C20.4648 13.0638 20.5901 13.2497 20.7475 13.4066L26.4998 18.2303C26.5167 18.2472 26.5553 18.281 26.6035 18.3316C26.6614 18.3906 26.7162 18.4525 26.7675 18.5173C26.8834 18.6528 26.9653 18.8141 27.0063 18.9876C27.0223 19.0771 27.0137 19.1692 26.9814 19.2542C26.9491 19.3391 26.8944 19.4137 26.823 19.47C26.9681 19.3453 27.0806 19.1872 27.151 19.0093C27.1959 18.8881 27.2075 18.757 27.1846 18.6298C27.1617 18.5025 27.1051 18.3837 27.0207 18.2858C26.9605 18.2086 26.8977 18.1411 26.8471 18.088C26.7964 18.0349 26.7506 17.9964 26.7265 17.9746L20.9766 13.1654C20.8512 13.0357 20.7513 12.8835 20.6824 12.7168L20.3785 12.8591Z" fill="#E10514"/>
<path d="M27.1413 19.019C27.1863 18.8977 27.1979 18.7667 27.175 18.6394C27.1521 18.5122 27.0955 18.3934 27.0111 18.2954C27.0111 18.2472 27.028 18.1965 27.0352 18.1435C27.0425 18.0904 27.0473 18.0325 27.0521 17.9746C27.0569 17.9168 27.0521 17.8709 27.0521 17.8155C27.0521 17.76 27.0521 17.7069 27.0521 17.6515V13.7804C27.053 13.6002 27.0186 13.4216 26.9508 13.2546L27.2475 13.1099C27.3366 13.3222 27.3825 13.5502 27.3825 13.7804V17.6587C27.3825 17.719 27.3825 17.7793 27.3825 17.8372C27.3825 17.8951 27.3825 17.9481 27.3825 18.0036C27.3594 18.3531 27.2779 18.6964 27.1413 19.019Z" fill="#E10514"/>
<path d="M20.6775 12.7168C20.6078 12.5486 20.5726 12.3682 20.5738 12.1862V7.88099C20.5699 7.86842 20.5699 7.85497 20.5738 7.8424C20.5819 7.83568 20.5908 7.83001 20.6004 7.82552L20.6245 7.80863L20.4942 7.49268C20.4466 7.51551 20.4033 7.54653 20.3664 7.58433C20.3271 7.62129 20.2966 7.66663 20.2772 7.71698C20.2549 7.76879 20.2434 7.82459 20.2434 7.88099V12.1862C20.2432 12.4172 20.2891 12.646 20.3785 12.8591L20.6775 12.7168Z" fill="#E10514"/>
<path d="M27.2643 13.1099C27.1777 12.9054 27.0524 12.7195 26.8953 12.5624L20.9621 7.58433C20.9234 7.54547 20.8775 7.51436 20.8271 7.49268C20.7761 7.47039 20.7211 7.45889 20.6655 7.45891C20.6083 7.45871 20.5517 7.4702 20.4991 7.49268L20.6245 7.79899C20.638 7.79626 20.652 7.79626 20.6655 7.79899C20.6782 7.79645 20.6913 7.79645 20.7041 7.79899L20.7354 7.82552L26.671 12.806C26.7978 12.9352 26.8985 13.0875 26.9677 13.2546L27.2643 13.1099Z" fill="#E10514"/>
<path d="M24.4256 3.19956V4.94093L25.3759 5.72237V7.85928L24.7174 7.31903V8.9398L26.7169 10.6064V8.99286L26.2658 8.60937V6.48452L27.2041 7.2732V5.52219L24.4256 3.19956Z" fill="#E10514"/>
<path d="M26.2658 8.60937V6.48452L26.4636 6.91142V8.51772L26.2658 8.60937Z" fill="#E10514"/>
<path d="M25.3759 5.71996V7.85928L25.1757 7.43721V5.81402L25.3759 5.71996Z" fill="#E10514"/>
<path d="M27.2016 5.52219L24.4256 3.19956L24.3532 3.02108L24.3822 3.00179C24.3965 2.9994 24.4112 2.9994 24.4256 3.00179C24.4486 3.00208 24.4714 3.00615 24.4931 3.01385C24.5151 3.02123 24.5356 3.03268 24.5534 3.04761L27.3295 5.37024C27.3524 5.3881 27.3706 5.41128 27.3825 5.43777L27.2016 5.52219Z" fill="#E10514"/>
<path d="M25.1757 5.81402L24.2978 5.09046C24.2754 5.07105 24.2574 5.04724 24.2447 5.02052L24.4256 4.93128L25.3759 5.71031L25.1757 5.81402Z" fill="#E10514"/>
<path d="M26.2658 6.48452L27.2016 7.2732L27.2861 7.45168C27.2734 7.459 27.2595 7.4639 27.2451 7.46615H27.2016C27.1786 7.46566 27.1559 7.46159 27.1341 7.45409C27.1128 7.4467 27.0931 7.43523 27.0762 7.42032L26.4636 6.9066L26.2658 6.48452Z" fill="#E10514"/>
<path d="M26.7144 10.604V8.99286L26.8953 8.91086C26.908 8.93635 26.9146 8.96441 26.9146 8.99286V10.604C26.9146 10.6416 26.9037 10.6785 26.8833 10.7101C26.8637 10.7433 26.8342 10.7694 26.7989 10.7849L26.7144 10.604Z" fill="#E10514"/>
<path d="M24.7174 7.31903V8.9398L24.5365 9.02421C24.5247 8.99768 24.5189 8.96884 24.5196 8.9398V7.31903C24.5204 7.28148 24.5312 7.24483 24.551 7.2129C24.5711 7.18164 24.5995 7.15659 24.633 7.14055L24.7174 7.31903Z" fill="#E10514"/>
<path d="M24.633 7.14055C24.6458 7.13362 24.6597 7.12873 24.674 7.12608H24.7174C24.7404 7.12637 24.7633 7.13044 24.785 7.13814C24.8067 7.14606 24.8271 7.15746 24.8452 7.1719L25.1757 7.44203L25.3759 7.86411L24.7174 7.31903L24.633 7.14055Z" fill="#E10514"/>
<path d="M26.7989 10.7849C26.7862 10.7922 26.7723 10.7971 26.7579 10.7993H26.7144C26.6922 10.7991 26.6702 10.795 26.6493 10.7873C26.6273 10.7799 26.6068 10.7685 26.589 10.7535L24.5944 9.09175C24.5709 9.07384 24.5519 9.05072 24.5389 9.02421L24.7198 8.9398L26.7169 10.604L26.7989 10.7849Z" fill="#E10514"/>
<path d="M26.4636 8.51772L26.8447 8.84091C26.8663 8.86042 26.8835 8.88425 26.8953 8.91086L26.7144 8.99286L26.2658 8.60937L26.4636 8.51772Z" fill="#E10514"/>
<path d="M27.3825 5.43777C27.3949 5.46422 27.4015 5.493 27.4018 5.52219V7.2732C27.4014 7.3108 27.3906 7.34754 27.3705 7.37932C27.3508 7.41181 27.3212 7.43716 27.2861 7.45168L27.2016 7.2732V5.52219L27.3825 5.43777Z" fill="#E10514"/>
<path d="M24.4256 3.19956V4.93128L24.2447 5.01328C24.2321 4.98779 24.2255 4.95973 24.2254 4.93128V3.19956C24.2258 3.16196 24.2367 3.12522 24.2568 3.09344C24.2808 3.06009 24.3145 3.03485 24.3532 3.02108L24.4256 3.19956Z" fill="#E10514"/>
<path d="M29.2107 28.9535V25.9314L30.3684 24.9763V27.9791L29.2107 28.9535Z" fill="#E10514"/>
<path d="M29.2107 20.9412V18.4522L30.3684 17.4899V19.9693L29.2107 20.9412Z" fill="#E10514"/>
<path d="M35.4261 28.6689C35.427 29.0353 35.2831 29.3872 35.0257 29.6481L29.0781 34.643C29.0602 34.6594 29.0371 34.6688 29.013 34.6696C28.9896 34.6682 28.9675 34.6589 28.9502 34.643C28.9335 34.6254 28.924 34.6022 28.9237 34.5779V30.2559C28.9259 29.8948 29.0687 29.5488 29.3217 29.2911L34.2781 25.1306H34.2901C34.6731 24.7462 34.8889 24.2262 34.8907 23.6835V22.357C34.8926 22.2564 34.8742 22.1565 34.8364 22.0632C34.7987 21.97 34.7425 21.8853 34.6712 21.8143C34.5306 21.677 34.3419 21.6002 34.1454 21.6002C33.9489 21.6002 33.7602 21.677 33.6196 21.8143L29.0781 25.6275C29.0695 25.636 29.0593 25.6427 29.0482 25.6473C29.037 25.6518 29.025 25.6541 29.013 25.654C28.9894 25.6538 28.9668 25.6443 28.9502 25.6275C28.9418 25.6189 28.935 25.6088 28.9305 25.5976C28.9259 25.5864 28.9236 25.5744 28.9237 25.5624V22.2533C28.9252 21.8921 29.068 21.5458 29.3217 21.2885L34.2781 17.1208H34.2901C34.674 16.737 34.89 16.2166 34.8907 15.6737V14.8682C34.89 14.7212 34.8461 14.5777 34.7643 14.4556C34.6826 14.3335 34.5666 14.2381 34.431 14.1815C34.2954 14.1249 34.1461 14.1095 34.0018 14.1373C33.8575 14.165 33.7246 14.2347 33.6196 14.3376L29.0781 18.1411C29.0695 18.1496 29.0593 18.1563 29.0482 18.1608C29.037 18.1654 29.025 18.1677 29.013 18.1676C28.9895 18.167 28.9671 18.1574 28.9505 18.1408C28.9339 18.1242 28.9243 18.1018 28.9237 18.0784V13.7635C28.9257 13.4024 29.0685 13.0563 29.3217 12.7988L35.2717 7.79416C35.2796 7.78538 35.2893 7.77844 35.3001 7.77385C35.311 7.76927 35.3227 7.76714 35.3344 7.76763C35.3465 7.76763 35.3584 7.77 35.3695 7.77461C35.3806 7.77921 35.3907 7.78597 35.3993 7.79448C35.4078 7.80299 35.4145 7.81309 35.4191 7.82421C35.4237 7.83533 35.4261 7.84725 35.4261 7.85928V17.9553C35.4261 18.5728 35.1005 18.8646 34.787 19.1782C35.4189 19.0166 35.4261 19.552 35.4261 19.552V28.6689Z" fill="#E10514"/>
<path d="M34.4276 14.1735C34.3364 14.1363 34.239 14.1167 34.1406 14.1157C33.9461 14.1169 33.7596 14.1929 33.6196 14.3279L29.0781 18.1411C29.0715 18.1485 29.0632 18.1543 29.054 18.1579C29.0406 18.1618 29.0264 18.1618 29.013 18.1579C29.0003 18.1616 28.987 18.1616 28.9744 18.1579L28.8489 18.4667C28.9551 18.5085 29.0732 18.5085 29.1794 18.4667C29.2287 18.4443 29.2737 18.4133 29.312 18.375L33.8415 14.5787C33.8812 14.5416 33.9268 14.5114 33.9766 14.4895C34.0279 14.4658 34.084 14.4543 34.1406 14.4557C34.196 14.4549 34.251 14.4656 34.3022 14.4871L34.4276 14.1735Z" fill="#E10514"/>
<path d="M34.4252 16.3249C34.338 16.5305 34.2119 16.7172 34.0537 16.8748L29.0974 21.0329C28.9415 21.1882 28.8163 21.3715 28.7284 21.5731L29.0274 21.7179C29.0952 21.5505 29.1952 21.3981 29.3217 21.2693L34.2781 17.1208C34.4685 16.9299 34.62 16.7038 34.7242 16.4552L34.4252 16.3249Z" fill="#E10514"/>
<path d="M34.4276 21.6624C34.3369 21.6237 34.2392 21.604 34.1406 21.6045C34.0448 21.6046 33.9499 21.6226 33.8608 21.6576C33.7711 21.6939 33.6893 21.7471 33.6196 21.8143L29.0781 25.6275C29.0715 25.635 29.0632 25.6407 29.054 25.6444C29.0406 25.6482 29.0264 25.6482 29.013 25.6444C29.0003 25.648 28.987 25.648 28.9744 25.6444L28.8489 25.9507C28.9012 25.9729 28.9574 25.9844 29.0142 25.9844C29.0709 25.9844 29.1271 25.9729 29.1794 25.9507C29.2286 25.9292 29.2736 25.899 29.312 25.8614L33.8415 22.0555C33.8803 22.0167 33.9261 21.9856 33.9766 21.9639C34.028 21.9416 34.0834 21.9302 34.1394 21.9302C34.1954 21.9302 34.2508 21.9416 34.3022 21.9639L34.4276 21.6624Z" fill="#E10514"/>
<path d="M34.4252 24.3371C34.338 24.542 34.2118 24.7279 34.0537 24.8846L29.0974 29.0499C28.94 29.2068 28.8147 29.3927 28.7284 29.5974L29.0274 29.7397C29.0964 29.573 29.1962 29.4208 29.3217 29.2911L34.2781 25.1306C34.468 24.9384 34.6194 24.7116 34.7242 24.4626L34.4252 24.3371Z" fill="#E10514"/>
<path d="M35.3224 29.1995C35.2541 29.3671 35.1532 29.5196 35.0257 29.6481L29.0781 34.643L29.054 34.6599C29.0404 34.6626 29.0265 34.6626 29.013 34.6599C29.0002 34.6624 28.9871 34.6624 28.9744 34.6599L28.8489 34.9662C28.9012 34.9885 28.9574 34.9999 29.0142 34.9999C29.0709 34.9999 29.1271 34.9885 29.1794 34.9662C29.2291 34.9456 29.2742 34.9153 29.312 34.877L35.25 29.8917C35.4077 29.7342 35.5331 29.5474 35.619 29.3418L35.3224 29.1995Z" fill="#E10514"/>
<path d="M35.4261 17.9553C35.4313 18.2112 35.3608 18.4629 35.2235 18.6789C35.0964 18.8598 34.95 19.0264 34.787 19.1758L35.0836 19.0093C35.2395 18.871 35.3839 18.7201 35.5153 18.5583C35.6753 18.3514 35.7604 18.0963 35.7565 17.8348L35.4261 17.9553Z" fill="#E10514"/>
<path d="M29.0274 13.2377C29.0952 13.0704 29.1952 12.918 29.3217 12.7891L35.2717 7.79416L35.2959 7.77728C35.3086 7.77454 35.3217 7.77454 35.3344 7.77728C35.348 7.77479 35.3619 7.77479 35.3755 7.77728L35.4985 7.47097C35.4467 7.44868 35.3908 7.43718 35.3344 7.43718C35.278 7.43718 35.2222 7.44868 35.1704 7.47097C35.1204 7.49238 35.0747 7.5226 35.0354 7.56021L29.0974 12.5455C28.9405 12.7028 28.8153 12.8886 28.7284 13.093L29.0274 13.2377Z" fill="#E10514"/>
<path d="M28.7284 13.093C28.6388 13.3052 28.5928 13.5332 28.5933 13.7635V18.0784C28.5923 18.1348 28.6039 18.1908 28.6271 18.2424C28.6476 18.2921 28.678 18.3372 28.7163 18.375C28.7546 18.4133 28.7996 18.4443 28.8489 18.4667L28.9744 18.1579C28.9651 18.1543 28.9571 18.1482 28.9505 18.1408C28.9438 18.1336 28.9378 18.1257 28.9334 18.1169C28.9309 18.1042 28.9309 18.0911 28.9334 18.0784V13.7635C28.9333 13.5832 28.9685 13.4046 29.0371 13.2377L28.7284 13.093Z" fill="#E10514"/>
<path d="M35.7565 17.8372V7.85928C35.7565 7.80289 35.745 7.74708 35.7228 7.69527C35.7024 7.64472 35.672 7.5988 35.6335 7.56026C35.5949 7.52172 35.549 7.49135 35.4985 7.47097L35.3755 7.77728L35.3993 7.79448C35.4054 7.80211 35.4114 7.80985 35.4165 7.81828C35.4192 7.83181 35.4192 7.84575 35.4165 7.85928V17.9553L35.7565 17.8372Z" fill="#E10514"/>
<path d="M35.7565 19.3036C35.7506 19.2566 35.7367 19.2109 35.7155 19.1685C35.6948 19.1277 35.668 19.0903 35.6359 19.0576C35.5968 19.0197 35.551 18.9894 35.5009 18.9683C35.45 18.9458 35.3949 18.9343 35.3393 18.9346C35.2831 18.9349 35.2276 18.9456 35.1753 18.9659C35.1437 18.9781 35.113 18.9926 35.0836 19.0093L34.787 19.1758C35.1029 19.0962 35.2693 19.1758 35.3417 19.3012C35.391 19.3725 35.4202 19.4558 35.4261 19.5424L35.7565 19.3036Z" fill="#E10514"/>
<path d="M34.4252 24.3371C34.5145 24.1241 34.5604 23.8953 34.5602 23.6642V22.357C34.561 22.3008 34.5503 22.245 34.5289 22.193C34.5072 22.1426 34.4761 22.0967 34.4372 22.0579C34.3984 22.0198 34.3525 21.9895 34.3022 21.9687L34.4276 21.6624C34.5179 21.6998 34.5998 21.7547 34.6688 21.824C34.7399 21.893 34.7961 21.976 34.8339 22.0677C34.8716 22.1594 34.8901 22.2579 34.8883 22.357V23.6642C34.8888 23.9347 34.8364 24.2026 34.7339 24.4529L34.4252 24.3371Z" fill="#E10514"/>
<path d="M29.0274 29.7373C28.9641 29.9027 28.933 30.0787 28.9358 30.2559V34.5707C28.9327 34.5834 28.9327 34.5966 28.9358 34.6093L28.9527 34.6358L28.9768 34.6527L28.8514 34.959C28.8016 34.9384 28.7565 34.9081 28.7187 34.8698C28.6798 34.8315 28.6494 34.7855 28.6295 34.7347C28.606 34.6833 28.5945 34.6272 28.5957 34.5707V30.2559C28.5955 30.0264 28.6414 29.7992 28.7308 29.5878L29.0274 29.7373Z" fill="#E10514"/>
<path d="M28.7284 21.5731C28.6388 21.7853 28.5928 22.0133 28.5933 22.2436V25.5624C28.5917 25.6189 28.6032 25.6751 28.6271 25.7264C28.6464 25.7775 28.6769 25.8236 28.7163 25.8614C28.7547 25.899 28.7997 25.9292 28.8489 25.9507L28.9744 25.6444C28.9651 25.6407 28.9568 25.635 28.9502 25.6275C28.9435 25.6203 28.9378 25.6122 28.9334 25.6034C28.9303 25.5899 28.9303 25.5759 28.9334 25.5624V22.2533C28.9333 22.0729 28.9685 21.8943 29.0371 21.7275L28.7284 21.5731Z" fill="#E10514"/>
<path d="M34.3022 14.4799C34.3526 14.5015 34.3985 14.5326 34.4372 14.5715C34.4766 14.609 34.5078 14.6541 34.5289 14.7042C34.5503 14.7561 34.561 14.8119 34.5602 14.8682V15.6544C34.5607 15.8847 34.5148 16.1128 34.4252 16.3249L34.7363 16.4431C34.8386 16.1928 34.891 15.9249 34.8907 15.6544V14.8682C34.8922 14.7694 34.8736 14.6714 34.8358 14.5802C34.7981 14.4889 34.742 14.4063 34.6712 14.3376C34.6028 14.2671 34.5207 14.2113 34.43 14.1735L34.3022 14.4799Z" fill="#E10514"/>
<path d="M35.4261 19.5496V28.6689C35.4262 28.8508 35.391 29.031 35.3224 29.1995L35.619 29.3418C35.7105 29.1292 35.7573 28.9002 35.7565 28.6689V19.3036L35.4261 19.5496Z" fill="#E10514"/>
<path d="M31.5406 8.70585V7.07543L29.6979 8.62143V6.51829L31.5406 4.96746V3.21886L28.7935 5.53425V11.0164L31.5406 8.70585Z" fill="#E10514"/>
<path d="M29.8981 6.60994V8.19453L29.6979 8.62143V6.51829L29.8981 6.60994Z" fill="#E10514"/>
<path d="M28.7091 11.2021C28.6742 11.1866 28.6447 11.1612 28.6241 11.129C28.6035 11.0969 28.5928 11.0594 28.5933 11.0212V5.53425C28.5925 5.50493 28.5991 5.47589 28.6126 5.44983L28.7935 5.53425V11.0164L28.7091 11.2021Z" fill="#E10514"/>
<path d="M31.7239 5.05428C31.7112 5.08029 31.6931 5.10331 31.6708 5.12182L29.9005 6.61959L29.7003 6.52793L31.5406 4.96746L31.7239 5.05428Z" fill="#E10514"/>
<path d="M31.5406 7.07302L29.6979 8.62143L29.9005 8.19453L31.4152 6.92107C31.4337 6.90534 31.455 6.89309 31.4779 6.88489C31.4987 6.87719 31.5208 6.87312 31.543 6.87283H31.5864L31.6298 6.8873L31.5406 7.07302Z" fill="#E10514"/>
<path d="M28.7935 11.0164L31.5406 8.70585L31.7239 8.79268C31.7104 8.81818 31.6924 8.84105 31.6708 8.86021L28.9213 11.1708C28.9032 11.1852 28.8828 11.1966 28.861 11.2045C28.8393 11.212 28.8165 11.2161 28.7935 11.2166H28.7501C28.7356 11.2144 28.7217 11.2094 28.7091 11.2021L28.7935 11.0164Z" fill="#E10514"/>
<path d="M31.5406 3.21644L28.7935 5.53425L28.6126 5.44983C28.6245 5.42334 28.6427 5.40015 28.6656 5.3823L31.4128 3.0645C31.4314 3.04954 31.4527 3.0381 31.4755 3.03073C31.4958 3.02114 31.5181 3.0162 31.5406 3.01626C31.5549 3.01374 31.5696 3.01374 31.584 3.01626L31.6274 3.02832L31.5406 3.21644Z" fill="#E10514"/>
<path d="M31.5406 4.96746V3.21644L31.6274 3.03555C31.6611 3.05346 31.69 3.07908 31.7118 3.11032C31.7319 3.1421 31.7428 3.17885 31.7432 3.21644V4.96746C31.7431 4.99745 31.7365 5.02708 31.7239 5.05428L31.5406 4.96746Z" fill="#E10514"/>
<path d="M31.6274 6.89213C31.6611 6.91003 31.69 6.93565 31.7118 6.96689C31.7312 6.99887 31.7412 7.03563 31.7408 7.07302V8.70585C31.7415 8.73567 31.7357 8.76528 31.7239 8.79268L31.5406 8.70585V7.07302L31.6274 6.89213Z" fill="#E10514"/>
</svg>
